<svg height="47.427" viewBox="0 0 182 40" width="176.522" xmlns="http://www.w3.org/2000/svg"><path d="M0 0h182v40H0z" fill="none" opacity="0"/><g fill-rule="evenodd"><path d="M32.853 4.107h-8.437a.787.787 0 00-.557.225c-1.182 1.7-8.854 12.752-12.352 13.321a.219.219 0 01-.253-.174V4.598a.494.494 0 00-.512-.476H4.026a.5.5 0 00-.51.476V36.57h7.752V25.079a.368.368 0 01.378-.35h.041a14.435 14.435 0 018.94 4.691 8.63 8.63 0 013.143 7.143l8.038.065c-.222-6.78-3.337-12.411-9.792-15.535-1.947-.983-1.786-1.016-.342-2.6 7.572-8.255 10.519-12.268 11.613-13.61a.452.452 0 00-.071-.669.552.552 0 00-.339-.107z" fill="#253dc1"/><path d="M41.504 29.759a11.956 11.956 0 01-4.9.776h-5.22v-7.562h4.5a15.379 15.379 0 015.537.721 2.916 2.916 0 011.732 3.008 3.036 3.036 0 01-1.635 3.051zm-10.12-19.398h3.659a11.79 11.79 0 014.779.691 2.825 2.825 0 011.411 2.828 2.691 2.691 0 01-1.537 2.788 12.889 12.889 0 01-4.706.646h-3.608zm17.717 12.1a9.054 9.054 0 00-5.054-2.722q.878-.371 1.221-.535a9.235 9.235 0 001.221-.814 6.522 6.522 0 002.587-5.676 8.2 8.2 0 00-2.294-5.672 8.672 8.672 0 00-3.783-2.141 20.127 20.127 0 00-5.98-.79H24.258a.513.513 0 00-.525.5v32.021h14.94q7.03 0 9.863-3.025a8.514 8.514 0 002.442-6 7.368 7.368 0 00-1.877-5.138z" fill="#01d6d7"/><path d="M23.733 22.052c5.288 3.248 7.867 8.442 8.068 14.578l-8.068-.065a8.461 8.461 0 000-1.16zm9.184-17.947a.551.551 0 01.295.106.451.451 0 01.074.669c-.99 1.211-3.493 4.595-9.553 11.307V4.607a.472.472 0 01.077-.258l.015-.017a.616.616 0 01.561-.227h-.081z" fill="#029bbd"/></g><path d="M84.729 4.258v32.943h-2.1L58.804 8.588v28.613h-2.548V4.258h2.148l23.777 28.613V4.258zm26.6 15.8a9.894 9.894 0 015.72 2.777 7.754 7.754 0 011.973 5.506 7.384 7.384 0 01-3.247 6.447q-3.243 2.264-9.637 2.264H90.556V4.105h14.583q5.695 0 8.867 2.188a7.125 7.125 0 013.172 6.236 7.276 7.276 0 01-1.574 4.753 8.716 8.716 0 01-4.271 2.777zM93.141 6.252v13.175h11.96q4.6 0 7.08-1.677a5.577 5.577 0 002.475-4.935 5.532 5.532 0 00-2.477-4.888q-2.475-1.675-7.078-1.675zm13.083 28.8q5.113 0 7.744-1.675a5.694 5.694 0 002.631-5.167 5.638 5.638 0 00-2.631-5.143q-2.631-1.652-7.744-1.651H93.141v13.636zM126.756 6.27v14.071h18.7v2.165h-18.7v14.546h-2.553V4.105h23.453V6.27zm40.011 31.082a19.63 19.63 0 01-9.268-2.164 16.552 16.552 0 01-6.495-5.975 15.865 15.865 0 01-2.373-8.561 15.865 15.865 0 012.373-8.562 16.552 16.552 0 016.495-5.975 19.63 19.63 0 019.268-2.163 20.487 20.487 0 016.995 1.153 14.5 14.5 0 015.446 3.411l-1.6 1.552a15.144 15.144 0 00-10.742-3.9 16.98 16.98 0 00-7.994 1.882 14.253 14.253 0 00-5.646 5.2 13.818 13.818 0 00-2.048 7.41 13.818 13.818 0 002.048 7.41 14.253 14.253 0 005.646 5.2 16.98 16.98 0 007.994 1.882 15.15 15.15 0 0010.742-3.952l1.6 1.552a14.718 14.718 0 01-5.471 3.434 20.177 20.177 0 01-6.97 1.166z" fill="#1e2447"/></svg>